HIERARCHY
ROOT Hips
{
	OFFSET 0.000000 0.000000 0.000000
	CHANNELS 6 Xposition Yposition Zposition Zrotation Yrotation Xrotation 
	JOINT LHipJoint
	{
		OFFSET 0.000000 0.000000 0.000000
		CHANNELS 3 Zrotation Yrotation Xrotation
		JOINT LeftUpLeg
		{
			OFFSET 1.363060 -1.794630 0.839290
			CHANNELS 3 Zrotation Yrotation Xrotation
			JOINT LeftLeg
			{
				OFFSET 2.448110 -6.726130 0.000000
				CHANNELS 3 Zrotation Yrotation Xrotation
				JOINT LeftFoot
				{
					OFFSET 2.562200 -7.039590 0.000000
					CHANNELS 3 Zrotation Yrotation Xrotation
					JOINT LeftToeBase
					{
						OFFSET 0.157640 -0.433110 2.322550
						CHANNELS 3 Zrotation Yrotation Xrotation
						End Site
						{
							OFFSET 0.000000 0.000000 0.000000
						}
					}
				}
			}
		}
	}
	JOINT RHipJoint
	{
		OFFSET 0.000000 0.000000 0.000000
		CHANNELS 3 Zrotation Yrotation Xrotation
		JOINT RightUpLeg
		{
			OFFSET -1.305520 -1.794630 0.839290
			CHANNELS 3 Zrotation Yrotation Xrotation
			JOINT RightLeg
			{
				OFFSET -2.542530 -6.985550 0.000000
				CHANNELS 3 Zrotation Yrotation Xrotation
				JOINT RightFoot
				{
					OFFSET -2.568260 -7.056230 0.000000
					CHANNELS 3 Zrotation Yrotation Xrotation
					JOINT RightToeBase
					{
						OFFSET -0.164730 -0.452590 2.363150
						CHANNELS 3 Zrotation Yrotation Xrotation
						End Site
						{
							OFFSET 0.000000 0.000000 0.000000
						}
					}
				}
			}
		}
	}
	JOINT LowerBack
	{
		OFFSET 0.000000 0.000000 0.000000
		CHANNELS 3 Zrotation Yrotation Xrotation
		JOINT Spine
		{
			OFFSET 0.028270 2.035590 -0.193380
			CHANNELS 3 Zrotation Yrotation Xrotation
			JOINT Spine1
			{
				OFFSET 0.056720 2.048850 -0.042750
				CHANNELS 3 Zrotation Yrotation Xrotation
				JOINT Neck
				{
					OFFSET 0.000000 0.000000 0.000000
					CHANNELS 3 Zrotation Yrotation Xrotation
					JOINT Neck1
					{
						OFFSET -0.054170 1.746240 0.172020
						CHANNELS 3 Zrotation Yrotation Xrotation
						JOINT Head
						{
							OFFSET 0.104070 1.761360 -0.123970
							CHANNELS 3 Zrotation Yrotation Xrotation
							End Site
							{
								OFFSET 0.000000 0.000000 0.000000
							}
						}
					}
				}
				JOINT LeftShoulder
				{
					OFFSET 0.000000 0.000000 0.000000
					CHANNELS 3 Zrotation Yrotation Xrotation
					JOINT LeftArm
					{
						OFFSET 3.362410 1.200890 -0.311210
						CHANNELS 3 Zrotation Yrotation Xrotation
						JOINT LeftForeArm
						{
							OFFSET 4.983000 -0.000000 -0.000000
							CHANNELS 3 Zrotation Yrotation Xrotation
							JOINT LeftHand
							{
								OFFSET 3.483560 -0.000000 -0.000000
								CHANNELS 3 Zrotation Yrotation Xrotation
								JOINT LeftFingerBase
								{
									OFFSET 0.000000 0.000000 0.000000
									CHANNELS 3 Zrotation Yrotation Xrotation
									JOINT LeftHandIndex1
									{
										OFFSET 0.715260 -0.000000 -0.000000
										CHANNELS 3 Zrotation Yrotation Xrotation
										End Site
										{
											OFFSET 0.000000 0.000000 0.000000
										}
									}
								}
								JOINT LThumb
								{
									OFFSET 0.000000 0.000000 0.000000
									CHANNELS 3 Zrotation Yrotation Xrotation
									End Site
									{
										OFFSET 0.000000 0.000000 0.000000
									}
								}
							}
						}
					}
				}
				JOINT RightShoulder
				{
					OFFSET 0.000000 0.000000 0.000000
					CHANNELS 3 Zrotation Yrotation Xrotation
					JOINT RightArm
					{
						OFFSET -3.136600 1.374050 -0.404650
						CHANNELS 3 Zrotation Yrotation Xrotation
						JOINT RightForeArm
						{
							OFFSET -5.241900 -0.000000 -0.000000
							CHANNELS 3 Zrotation Yrotation Xrotation
							JOINT RightHand
							{
								OFFSET -3.444170 -0.000000 -0.000000
								CHANNELS 3 Zrotation Yrotation Xrotation
								JOINT RightFingerBase
								{
									OFFSET 0.000000 0.000000 0.000000
									CHANNELS 3 Zrotation Yrotation Xrotation
									JOINT RightHandIndex1
									{
										OFFSET -0.622530 -0.000000 -0.000000
										CHANNELS 3 Zrotation Yrotation Xrotation
										End Site
										{
											OFFSET 0.000000 0.000000 0.000000
										}
									}
								}
								JOINT RThumb
								{
									OFFSET 0.000000 0.000000 0.000000
									CHANNELS 3 Zrotation Yrotation Xrotation
									End Site
									{
										OFFSET 0.000000 0.000000 0.000000
									}
								}
							}
						}
					}
				}
			}
		}
	}
}
MOTION
Frames: 12
Frame Time: 0.008333
10.984050 17.248933 -33.180638 2.599931 3.044878 8.031221 10.507618 4.704999 -0.789007 -37.075416 -1.848252 2.778777 -1.238298 4.726709 17.102503 2.241242 -6.640519 -3.619452 0.000215 -0.018490 -0.050746 -15.521585 -5.474176 3.244261 24.917989 21.879087 -36.486116 -0.074630 -12.223314 27.893601 0.880217 -9.356153 -12.634402 -0.238347 3.131557 -8.646152 -2.296776 -1.205287 -2.300013 0.420916 -1.962438 -3.703046 2.613410 -1.231926 6.701587 -9.244839 -3.377966 -18.690402 2.774760 -2.519107 8.658309 4.315367 -2.014007 12.120768 -6.462128 -6.074654 0.537001 -66.373748 -8.848028 44.604013 17.293608 -27.758944 -6.361114 -1.462659 -3.236787 -6.079613 17.055393 28.531507 10.087604 -7.125000 0.000000 0.000000 -15.537296 62.146821 -6.569671 4.532206 5.766346 0.463109 71.361602 -11.833178 42.870359 -22.831323 32.013867 -8.327636 -0.124843 0.042715 -14.764304 -15.884257 14.492550 -4.028351 7.125000 0.000000 0.000000 7.970359 -15.113015 5.669554
10.982739 17.237495 -33.081104 2.645729 3.186474 8.090060 10.506087 4.715192 -0.835616 -37.036691 -1.609789 3.461502 -1.318178 4.449564 16.452258 2.229669 -6.636442 -3.543122 0.000740 -0.068067 -0.187023 -15.556706 -5.416730 3.339296 24.063196 23.255087 -36.577216 0.124024 -11.932802 26.891866 0.993984 -10.134384 -13.497063 -0.204733 2.910342 -8.029466 -2.375467 -1.272535 -2.449611 0.437262 -2.049583 -3.713518 2.710544 -1.294614 6.712474 -9.322327 -3.399361 -18.641772 2.810543 -2.523349 8.659665 4.353818 -2.019267 12.108909 -6.453955 -6.075045 0.539993 -66.375166 -9.000172 44.624915 17.447257 -27.875393 -6.398323 -1.491940 -3.135675 -5.809187 17.705330 27.783319 10.206317 -7.125000 0.000000 0.000000 -14.207642 61.490841 -5.794182 4.524955 5.751012 0.455697 71.317127 -12.032893 42.814258 -22.798626 31.996433 -8.307980 -0.107484 0.062802 -14.759071 -15.939341 14.127981 -3.941518 7.125000 0.000000 0.000000 7.911811 -15.498400 5.563927
10.980659 17.229851 -32.981339 2.665140 3.346478 8.146741 10.503440 4.723645 -0.886158 -36.957315 -1.358047 4.120030 -1.407701 4.153824 15.749069 2.162922 -6.398805 -3.456121 0.002100 -0.257711 -0.708205 -15.604507 -5.351121 3.446346 23.101061 24.879982 -36.655897 0.306843 -11.670418 25.973916 1.146344 -11.143378 -14.509345 -0.184022 2.760604 -7.613044 -2.438248 -1.353457 -2.593658 0.462883 -2.157375 -3.730234 2.840709 -1.369615 6.695965 -9.444628 -3.418058 -18.569023 2.854675 -2.508945 8.668579 4.408629 -2.021046 12.098815 -6.445216 -6.074097 0.538555 -66.424145 -9.135129 44.592216 17.593053 -27.976601 -6.418007 -1.509987 -3.003656 -5.368453 18.273099 26.736502 10.161495 -7.125000 0.000000 0.000000 -12.801836 60.491834 -4.902236 4.523426 5.735454 0.448926 71.225579 -12.233872 42.801304 -22.664680 31.892921 -8.238648 -0.088266 0.047255 -14.314637 -16.326530 14.129095 -4.052397 7.125000 0.000000 0.000000 7.638119 -15.442333 5.377211
10.978083 17.222669 -32.882498 2.716866 3.492277 8.232350 10.504261 4.733106 -0.937961 -36.904995 -1.063325 4.765030 -1.500476 3.839445 14.996820 2.084565 -6.142319 -3.290803 0.004848 -0.426432 -1.171905 -15.648476 -5.288987 3.557294 21.937335 26.673167 -36.826018 0.463764 -11.447372 25.175469 1.295792 -12.187329 -15.729570 -0.174450 2.690559 -7.418317 -2.531532 -1.437641 -2.727420 0.483203 -2.269386 -3.752542 2.954864 -1.444226 6.651166 -9.532324 -3.426130 -18.479447 2.872438 -2.493666 8.659629 4.435841 -2.020808 12.067202 -6.438234 -6.080724 0.538966 -66.436191 -9.276374 44.528232 17.707432 -28.072248 -6.467058 -1.470339 -2.995760 -5.115842 17.710387 26.521287 9.774692 -7.125000 0.000000 0.000000 -13.328920 60.151503 -4.982982 4.524692 5.723806 0.442064 71.151005 -12.387539 42.824469 -22.533815 31.784765 -8.167024 -0.075184 0.039302 -14.168231 -16.503353 14.127245 -4.103943 7.125000 0.000000 0.000000 7.510362 -15.417105 5.289857
10.975217 17.215756 -32.784195 2.787409 3.629804 8.334802 10.507100 4.743154 -0.990498 -36.868428 -0.743577 5.402153 -1.595145 3.514211 14.216006 1.999449 -5.874858 -3.079882 0.008404 -0.582969 -1.602136 -15.690214 -5.228877 3.670510 20.656226 28.564344 -37.049382 0.605605 -11.247231 24.446605 1.443543 -13.251635 -17.070876 -0.171364 2.666919 -7.352679 -2.642576 -1.523722 -2.855192 0.500437 -2.383856 -3.778106 3.059698 -1.518608 6.589894 -9.599872 -3.428014 -18.380073 2.874846 -2.477876 8.640277 4.446981 -2.019395 12.023060 -6.432276 -6.091762 0.540454 -66.426732 -9.421281 44.446030 17.803518 -28.164657 -6.533208 -1.397095 -3.060139 -4.972772 16.489421 26.790296 9.188761 -7.125000 0.000000 0.000000 -14.981482 60.194704 -5.630105 4.527584 5.714435 0.435149 71.086316 -12.513657 42.868665 -22.404744 31.673904 -8.094065 -0.065674 0.035769 -14.195361 -16.557684 14.123669 -4.120941 7.125000 0.000000 0.000000 7.467579 -15.409836 5.260359
10.973523 17.206091 -32.684151 2.907449 3.714849 8.397251 10.517018 4.762468 -1.041014 -36.888887 -0.360724 6.142336 -1.685460 3.171960 13.406086 1.937271 -5.725587 -2.827623 0.011170 -0.679859 -1.868408 -15.716595 -5.188317 3.754441 19.383246 30.268016 -37.308481 0.715211 -11.079545 23.854367 1.555365 -14.185194 -18.479062 -0.199797 2.865831 -7.906271 -2.781611 -1.584684 -2.992355 0.501956 -2.457025 -3.780902 3.114886 -1.571623 6.615546 -9.625361 -3.420659 -18.308773 2.872015 -2.462274 8.598881 4.449159 -2.010866 11.956060 -6.430853 -6.100086 0.552018 -66.363754 -9.635101 44.431762 17.909234 -28.237009 -6.566354 -1.415194 -3.003664 -4.993573 16.958909 26.340551 9.291725 -7.125000 0.000000 0.000000 -14.137882 59.806846 -5.195459 4.527302 5.702677 0.433053 71.073117 -12.609328 42.907309 -22.292899 31.584006 -8.034571 -0.052160 0.016733 -14.414394 -16.743384 14.381391 -4.254411 7.125000 0.000000 0.000000 7.340257 -15.104624 5.216251
10.972286 17.195355 -32.583431 3.046738 3.779483 8.444144 10.529689 4.785386 -1.090744 -36.931523 0.046669 6.922599 -1.774083 2.823091 12.584847 1.884014 -5.622279 -2.559289 0.013628 -0.753551 -2.070918 -15.737004 -5.155360 3.826983 18.113428 31.898770 -37.581477 0.812282 -10.924480 23.315262 1.653215 -15.067907 -19.913258 -0.240487 3.151292 -8.700674 -2.931532 -1.635878 -3.133170 0.497365 -2.514132 -3.774843 3.150768 -1.616329 6.675001 -9.634494 -3.409713 -18.248391 2.867146 -2.446746 8.548911 4.447851 -1.999569 11.880171 -6.431194 -6.107354 0.567501 -66.279964 -9.875721 44.443912 18.018695 -28.301561 -6.586664 -1.468814 -2.900191 -5.078103 18.085797 25.611291 9.662593 -7.125000 0.000000 0.000000 -12.323551 59.251354 -4.340124 4.525785 5.689991 0.432830 71.079942 -12.693159 42.943795 -22.187752 31.502260 -7.980314 -0.037089 -0.008332 -14.708057 -16.980171 14.740729 -4.433177 7.125000 0.000000 0.000000 7.180058 -14.683547 5.166460
10.970278 17.183258 -32.482393 3.197345 3.837176 8.431535 10.532445 4.828507 -1.120270 -36.942536 0.493541 7.811682 -1.869836 2.421884 11.639953 1.812975 -5.465228 -2.232140 0.018241 -0.865488 -2.378781 -15.709713 -5.172541 3.859526 17.586132 32.111280 -37.954224 0.864524 -10.819183 22.954067 1.603121 -14.943478 -20.304408 -0.358555 3.784209 -10.477905 -3.089176 -1.670949 -3.198250 0.485733 -2.549114 -3.772445 3.159721 -1.642676 6.681717 -9.618047 -3.397670 -18.140290 2.876750 -2.441338 8.492764 4.453516 -1.989413 11.794604 -6.437430 -6.109729 0.582557 -66.186679 -10.079406 44.516057 18.077278 -28.348365 -6.628421 -1.443837 -2.949864 -5.216464 17.603344 25.887415 9.501120 -7.125000 0.000000 0.000000 -13.062154 59.457589 -4.673378 4.515153 5.684408 0.431063 71.158022 -12.837288 42.804638 -22.122835 31.461315 -7.953995 -0.032735 -0.024367 -14.392170 -17.185424 14.885965 -4.538200 7.125000 0.000000 0.000000 7.043947 -14.496502 5.095455
10.968086 17.170837 -32.381280 3.350642 3.893220 8.404788 10.532844 4.876428 -1.144996 -36.946034 0.949794 8.726622 -1.967283 2.008241 10.665676 1.737711 -5.295406 -1.891014 0.023367 -0.986513 -2.711679 -15.671086 -5.201637 3.882564 17.235277 31.986782 -38.350675 0.906113 -10.725713 22.635148 1.517872 -14.579728 -20.447706 -0.495009 4.499690 -12.488679 -3.248654 -1.702188 -3.245335 0.472427 -2.578838 -3.770917 3.162274 -1.664662 6.675902 -9.595522 -3.385367 -18.020850 2.889793 -2.438336 8.435149 4.460838 -1.979528 11.706738 -6.445068 -6.110941 0.597512 -66.091137 -10.274314 44.602457 18.123771 -28.390952 -6.675274 -1.400183 -3.035929 -5.367617 16.738474 26.402441 9.213149 -7.125000 0.000000 0.000000 -14.407395 59.844827 -5.289068 4.502355 5.680513 0.428930 71.253035 -12.995746 42.623745 -22.067476 31.430064 -7.934316 -0.030928 -0.038256 -13.931440 -17.383184 14.980326 -4.625700 7.125000 0.000000 0.000000 6.913560 -14.365069 5.019409
10.966096 17.155243 -32.281324 3.497365 3.981122 8.402641 10.536034 4.925443 -1.169094 -36.913475 1.383104 9.706595 -2.070859 1.523114 9.515164 1.674511 -5.207828 -1.432287 0.015652 -0.770367 -2.117272 -15.628602 -5.230085 3.907060 16.889153 31.814279 -38.729511 0.936571 -10.647814 22.369467 1.383102 -13.992606 -20.643072 -0.491205 4.492935 -12.467942 -3.378358 -1.736549 -3.255960 0.455314 -2.614509 -3.782234 3.130564 -1.685611 6.638158 -9.546217 -3.397132 -17.999146 2.905213 -2.472797 8.415873 4.460194 -1.987076 11.692679 -6.449252 -6.122780 0.606668 -66.011013 -10.467822 44.705180 18.176364 -28.399269 -6.673025 -1.444692 -2.964368 -5.397580 17.546280 25.946463 9.494551 -7.125000 0.000000 0.000000 -13.156063 59.510767 -4.727915 4.480985 5.684610 0.420873 71.384893 -13.188044 42.504426 -22.060669 31.435288 -7.935954 -0.014860 -0.056439 -14.034995 -17.699708 15.187812 -4.789819 7.125000 0.000000 0.000000 6.698775 -14.095674 4.898656
10.964128 17.139280 -32.181503 3.643325 4.072721 8.403349 10.539547 4.974585 -1.193121 -36.876731 1.813752 10.694117 -2.175147 1.029690 8.344195 1.612712 -5.129796 -0.959909 0.006447 -0.515085 -1.415233 -15.585671 -5.258458 3.931724 16.543579 31.636204 -39.106302 0.965737 -10.571723 22.109966 1.242583 -13.379558 -20.844482 -0.471121 4.402349 -12.211405 -3.504605 -1.771271 -3.262354 0.437760 -2.650871 -3.795041 3.094877 -1.706441 6.596709 -9.493804 -3.411691 -17.988786 2.920909 -2.511606 8.401047 4.458625 -1.996647 11.687188 -6.453035 -6.135853 0.615152 -65.932678 -10.661168 44.809797 18.229666 -28.403609 -6.665077 -1.499433 -2.874511 -5.413476 18.548237 25.377779 9.842040 -7.125000 0.000000 0.000000 -11.603344 59.092985 -4.030164 4.458620 5.689636 0.412128 71.521028 -13.384268 42.392255 -22.059498 31.444745 -7.940066 0.002862 -0.075119 -14.204047 -18.030017 15.408428 -4.962832 7.125000 0.000000 0.000000 6.474193 -13.810267 4.772715
10.964540 17.125198 -32.080908 3.703234 4.111142 8.425356 10.549484 5.035226 -1.231781 -36.698516 2.377476 11.931346 -2.301124 0.316917 6.641116 1.508010 -4.934178 -0.239244 0.015203 0.262665 0.722305 -15.566251 -5.286111 3.959575 16.402691 31.518961 -39.335203 1.000814 -10.482136 21.832442 1.146749 -12.957382 -20.995777 -0.420468 4.154797 -11.513611 -3.544020 -1.786140 -3.339949 0.431106 -2.661408 -3.801410 3.066120 -1.717165 6.629691 -9.452348 -3.441679 -18.063531 2.927812 -2.565357 8.428390 4.449079 -2.017386 11.735785 -6.447413 -6.149567 0.619900 -65.928896 -10.861134 44.856669 18.245617 -28.403062 -6.685489 -1.458412 -2.940993 -5.544895 17.758856 25.733179 9.545967 -7.125000 0.000000 0.000000 -12.748338 59.325610 -4.513676 4.440791 5.687334 0.401583 71.617098 -13.561050 42.229540 -22.129609 31.523760 -7.987303 0.009862 -0.078126 -14.515562 -18.120526 15.563194 -5.040944 7.125000 0.000000 0.000000 6.414761 -13.635404 4.752018
